<svg id="SvgjsSvg1012" width="288" height="288" xmlns="http://www.w3.org/2000/svg" version="1.1" xmlns:xlink="http://www.w3.org/1999/xlink" xmlns:svgjs="http://svgjs.com/svgjs"><defs id="SvgjsDefs1013"></defs><g id="SvgjsG1014"><svg xmlns="http://www.w3.org/2000/svg" viewBox="0 0 128 128" width="288" height="288"><path fill="#15803d" d="M64 12c-28.7 0-52 23.3-52 52s23.3 52 52 52 52-23.3 52-52-23.3-52-52-52zm0 100c-26.5 0-48-21.5-48-48s21.5-48 48-48 48 21.5 48 48-21.5 48-48 48z" class="color3B97D3 svgShape"></path><path fill="#2c3e50" d="m76.8 46.3 16.3 16.3c.4.4.6.9.6 1.4 0 .6-.2 1.1-.6 1.4L77 81.7c-.8.8-2 .8-2.8 0-.4-.4-.6-.9-.6-1.4s.2-1.1.6-1.4L86.9 66H38.2c-1.1 0-2-.9-2-2s.9-2 2-2h48.7L74 49.1c-.4-.4-.6-.9-.6-1.4s.2-1 .6-1.4c.8-.8 2-.8 2.8 0z" class="color2C3E50 svgShape"></path></svg></g></svg>